<svg width="534" height="101" viewBox="0 0 534 101" fill="none" xmlns="http://www.w3.org/2000/svg">
<g clip-path="url(#clip0_235_129)">
<path opacity="0.74" d="M512.135 0H21.8649C9.78925 0 0 9.70884 0 21.6853V79.3147C0 91.2912 9.78925 101 21.8649 101H512.135C524.211 101 534 91.2912 534 79.3147V21.6853C534 9.70884 524.211 0 512.135 0Z" fill="url(#paint0_linear_235_129)" fill-opacity="0.5"/>
<path d="M216.416 20.3696V80.6301" stroke="white" stroke-width="2" stroke-miterlimit="10"/>
<g opacity="0.65">
<path d="M35.7712 31.6411C35.6514 29.9436 35.7712 28.4923 37.0207 27.3974C37.444 27.001 37.9467 26.6973 38.4961 26.5061C39.0455 26.3149 39.6294 26.2405 40.2097 26.2877C40.79 26.3349 41.3538 26.5027 41.8644 26.7802C42.3751 27.0577 42.8211 27.4386 43.1736 27.8982C44.0294 28.9931 44.0294 30.3086 44.0294 31.6326H55.4796C55.3512 29.9352 55.5395 28.2886 57.0285 27.1428C57.7893 26.5495 58.7404 26.2481 59.7071 26.2941C60.3406 26.3104 60.9616 26.4722 61.5214 26.7668C62.0812 27.0613 62.5645 27.4805 62.9333 27.9915C63.7891 29.061 63.7121 30.3256 63.7121 31.7005C64.5679 31.7005 65.4236 31.7005 66.2195 31.7005C67.4796 31.654 68.7219 32.0064 69.7666 32.7068C70.8113 33.4072 71.6041 34.4192 72.0302 35.5963C72.2881 36.3277 72.424 37.096 72.4324 37.8709C72.4324 47.852 72.4324 57.8389 72.4324 67.8314C72.4613 68.649 72.3197 69.4637 72.0165 70.2244C71.7132 70.9852 71.2547 71.6757 70.6698 72.2526C70.085 72.8295 69.3863 73.2803 68.6175 73.5769C67.8488 73.8735 67.0266 74.0095 66.2024 73.9762C55.2542 73.9762 44.3032 73.9762 33.3494 73.9762C32.5121 74.0201 31.6749 73.889 30.8918 73.5917C30.1088 73.2943 29.3975 72.8373 28.8038 72.2501C28.2101 71.6629 27.7473 70.9586 27.4454 70.1828C27.1434 69.407 27.009 68.577 27.0509 67.7465C27.0509 57.8106 27.0509 47.8719 27.0509 37.9303C27.0098 37.1057 27.1424 36.2817 27.4402 35.5108C27.7381 34.7399 28.1946 34.039 28.7808 33.4529C29.367 32.8667 30.0699 32.4082 30.8447 32.1065C31.6195 31.8048 32.4492 31.6665 33.2809 31.7005C34.0426 31.6242 34.847 31.6411 35.7712 31.6411ZM29.4471 45.0767V45.832C29.4471 53.0859 29.4471 60.3455 29.4471 67.6107C29.4471 70.0805 30.8848 71.5064 33.3836 71.5573C34.3678 71.5573 35.3519 71.5573 36.336 71.5573H65.8601C68.5386 71.5573 69.9678 70.1145 69.9678 67.4664V45.0767H29.4471ZM43.9952 34.1449C43.9952 34.6032 43.9952 34.9936 43.9952 35.435C43.9469 36.4844 43.4926 37.475 42.7267 38.2007C41.9609 38.9264 40.9424 39.3313 39.8832 39.3313C38.824 39.3313 37.8055 38.9264 37.0397 38.2007C36.2738 37.475 35.8195 36.4844 35.7712 35.435C35.7712 35.0276 35.7712 34.5862 35.7712 34.1704C34.5903 34.1704 33.5291 34.094 32.4851 34.1704C31.7838 34.2351 31.1231 34.5256 30.6039 34.9976C30.0848 35.4697 29.7356 36.0972 29.6097 36.7845C29.4557 38.6857 29.6097 40.6123 29.6097 42.5729H70.0876C70.0106 40.5699 70.0876 38.5923 69.8137 36.6317C69.723 36.0364 69.4436 35.4851 69.0159 35.0578C68.5881 34.6305 68.0343 34.3494 67.4347 34.2552C66.2236 34.0919 65.0028 34.0097 63.7806 34.0091C63.7677 34.7875 63.7048 35.5642 63.5923 36.3347C63.3586 37.2801 62.792 38.1117 61.9946 38.6793C61.1972 39.2469 60.2215 39.5133 59.2436 39.4303C58.2657 39.3473 57.3498 38.9205 56.6612 38.2268C55.9726 37.5332 55.5566 36.6183 55.4882 35.6472C55.4882 35.1379 55.4882 34.6202 55.4882 34.111L43.9952 34.1449ZM61.2389 32.9482C61.2389 32.0994 61.2389 31.2507 61.2389 30.402C61.2894 30.1554 61.284 29.9009 61.2231 29.6566C61.1622 29.4124 61.0473 29.1847 60.8868 28.9899C60.7263 28.7951 60.5241 28.6382 60.2949 28.5304C60.0657 28.4226 59.8153 28.3667 59.5616 28.3667C59.308 28.3667 59.0575 28.4226 58.8283 28.5304C58.5991 28.6382 58.3969 28.7951 58.2364 28.9899C58.0759 29.1847 57.961 29.4124 57.9001 29.6566C57.8392 29.9009 57.8338 30.1554 57.8843 30.402C57.8843 32.0485 57.8843 33.6951 57.8843 35.3416C57.8412 35.5856 57.8525 35.836 57.9173 36.0752C57.9822 36.3145 58.099 36.5367 58.2597 36.7264C58.4203 36.916 58.6209 37.0685 58.8473 37.1732C59.0737 37.2778 59.3204 37.332 59.5702 37.332C59.8199 37.332 60.0667 37.2778 60.2931 37.1732C60.5195 37.0685 60.72 36.916 60.8807 36.7264C61.0413 36.5367 61.1582 36.3145 61.223 36.0752C61.2879 35.836 61.2991 35.5856 61.256 35.3416C61.2475 34.5014 61.2304 33.7036 61.2304 32.9057L61.2389 32.9482ZM41.5562 32.8888V31.692C41.5562 31.2931 41.5562 30.8942 41.5562 30.4953C41.5562 30.0451 41.3759 29.6134 41.0549 29.295C40.734 28.9767 40.2986 28.7979 39.8447 28.7979C39.3908 28.7979 38.9554 28.9767 38.6345 29.295C38.3135 29.6134 38.1331 30.0451 38.1331 30.4953C38.1331 32.1164 38.1331 33.7375 38.1331 35.3586C38.09 35.6026 38.1013 35.853 38.1662 36.0922C38.231 36.3314 38.3479 36.5537 38.5085 36.7433C38.6692 36.933 38.8697 37.0855 39.0961 37.1902C39.3225 37.2948 39.5692 37.349 39.819 37.349C40.0688 37.349 40.3155 37.2948 40.5419 37.1902C40.7683 37.0855 40.9689 36.933 41.1295 36.7433C41.2902 36.5537 41.407 36.3314 41.4719 36.0922C41.5367 35.853 41.548 35.6026 41.5049 35.3586C41.6161 34.4929 41.5562 33.6696 41.5562 32.8463V32.8888Z" fill="#8F8FFF"/>
<path d="M45.4414 52.7153C45.017 52.7069 44.6047 52.5739 44.2564 52.3333C43.9082 52.0926 43.6397 51.7551 43.4847 51.3632C43.3297 50.9713 43.2953 50.5427 43.3858 50.1314C43.4762 49.7201 43.6875 49.3446 43.993 49.0523C44.2984 48.76 44.6843 48.5641 45.102 48.4891C45.5196 48.4142 45.9503 48.4636 46.3397 48.6312C46.729 48.7988 47.0595 49.0771 47.2896 49.4308C47.5196 49.7846 47.6388 50.198 47.6321 50.6189C47.6311 50.9004 47.5732 51.1789 47.4618 51.4378C47.3504 51.6967 47.1877 51.9308 46.9834 52.1263C46.7792 52.3218 46.5375 52.4746 46.2726 52.5758C46.0077 52.6769 45.725 52.7244 45.4414 52.7153Z" fill="#8F8FFF"/>
<path d="M36.8837 52.7153C36.4594 52.7069 36.0471 52.5739 35.6988 52.3333C35.3506 52.0926 35.082 51.7551 34.9271 51.3632C34.7721 50.9713 34.7377 50.5427 34.8282 50.1314C34.9186 49.7201 35.1299 49.3446 35.4354 49.0523C35.7408 48.76 36.1267 48.5641 36.5444 48.4891C36.962 48.4142 37.3927 48.4636 37.782 48.6312C38.1714 48.7988 38.5019 49.0771 38.732 49.4308C38.962 49.7846 39.0812 50.198 39.0745 50.6189C39.0735 50.9004 39.0156 51.1789 38.9042 51.4378C38.7927 51.6967 38.6301 51.9308 38.4258 52.1263C38.2216 52.3218 37.9798 52.4746 37.715 52.5758C37.4501 52.6769 37.1674 52.7244 36.8837 52.7153Z" fill="#8F8FFF"/>
<path d="M53.9221 56.1102C54.2261 56.0758 54.534 56.106 54.8253 56.1988C55.1167 56.2915 55.3848 56.4447 55.6119 56.6481C55.8389 56.8515 56.0198 57.1006 56.1423 57.3786C56.2649 57.6567 56.3264 57.9575 56.3227 58.2609C56.319 58.5644 56.2503 58.8636 56.121 59.1387C55.9918 59.4137 55.805 59.6584 55.5731 59.8564C55.3411 60.0543 55.0694 60.2011 54.7759 60.2869C54.4824 60.3726 54.1738 60.3955 53.8707 60.3539C53.3505 60.2825 52.8744 60.0253 52.5318 59.6305C52.1892 59.2357 52.0036 58.7304 52.0099 58.2096C52.0162 57.6887 52.214 57.1881 52.566 56.8015C52.9181 56.415 53.4002 56.1692 53.9221 56.1102Z" fill="#8F8FFF"/>
<path d="M51.7827 50.6019C51.7811 50.1826 51.9047 49.7723 52.138 49.4226C52.3713 49.0729 52.7038 48.7996 53.0936 48.6373C53.4834 48.4749 53.9129 48.4307 54.328 48.5102C54.7431 48.5898 55.1251 48.7895 55.4259 49.0842C55.7266 49.3789 55.9325 49.7554 56.0177 50.1661C56.1029 50.5768 56.0634 51.0033 55.9044 51.3918C55.7453 51.7803 55.4738 52.1133 55.1241 52.3489C54.7743 52.5844 54.362 52.7119 53.9393 52.7153C53.657 52.7198 53.3766 52.6684 53.1146 52.5641C52.8526 52.4599 52.6142 52.3048 52.4133 52.108C52.2125 51.9112 52.0533 51.6766 51.945 51.418C51.8367 51.1594 51.7816 50.8819 51.7827 50.6019Z" fill="#8F8FFF"/>
<path d="M64.4907 58.2152C64.5007 58.6377 64.3843 59.0536 64.1561 59.4105C63.9279 59.7674 63.5983 60.0493 63.2088 60.2206C62.8192 60.3919 62.3872 60.4448 61.9674 60.3728C61.5475 60.3009 61.1586 60.1071 60.8496 59.8161C60.5407 59.525 60.3256 59.1498 60.2315 58.7376C60.1374 58.3254 60.1685 57.8949 60.3209 57.5002C60.4733 57.1056 60.7402 56.7646 61.0878 56.5202C61.4355 56.2759 61.8483 56.1392 62.2743 56.1273C62.5582 56.1194 62.8409 56.1672 63.1062 56.268C63.3714 56.3687 63.614 56.5205 63.8199 56.7145C64.0259 56.9085 64.1911 57.1409 64.3063 57.3985C64.4214 57.656 64.4841 57.9336 64.4907 58.2152Z" fill="#8F8FFF"/>
<path d="M51.7829 65.9048C51.7846 65.4859 51.9113 65.0769 52.147 64.7292C52.3827 64.3816 52.7169 64.1109 53.1075 63.9514C53.4981 63.7919 53.9275 63.7505 54.3418 63.8327C54.756 63.9148 55.1364 64.1168 55.4351 64.413C55.7338 64.7092 55.9373 65.0865 56.0202 65.4973C56.103 65.9081 56.0613 66.334 55.9005 66.7214C55.7396 67.1088 55.4667 67.4403 55.1162 67.6741C54.7657 67.9079 54.3533 68.0335 53.9308 68.0352C53.6478 68.0386 53.367 67.9858 53.1048 67.88C52.8426 67.7741 52.6045 67.6173 52.4043 67.4188C52.2042 67.2203 52.0461 66.9841 51.9394 66.7241C51.8326 66.4641 51.7794 66.1856 51.7829 65.9048Z" fill="#8F8FFF"/>
<path d="M62.3943 48.4717C62.9144 48.5468 63.3889 48.8076 63.7288 49.2053C64.0687 49.6029 64.2504 50.1099 64.2399 50.631C64.2294 51.1522 64.0273 51.6516 63.6717 52.0354C63.3161 52.4193 62.8314 52.6611 62.3087 52.7154C62.0046 52.7471 61.6971 52.7142 61.4068 52.619C61.1164 52.5238 60.8498 52.3684 60.6246 52.1632C60.3995 51.958 60.2209 51.7076 60.1007 51.4287C59.9805 51.1498 59.9216 50.8488 59.9277 50.5455C59.9338 50.2423 60.0049 49.9438 60.1362 49.6699C60.2675 49.396 60.456 49.1529 60.6893 48.9568C60.9226 48.7607 61.1952 48.616 61.4892 48.5324C61.7831 48.4487 62.0917 48.4281 62.3943 48.4717Z" fill="#8F8FFF"/>
<path d="M39.2285 58.2406C39.2318 58.6608 39.1097 59.0726 38.8776 59.4242C38.6455 59.7757 38.3137 60.0514 37.924 60.2164C37.5343 60.3814 37.1041 60.4284 36.6876 60.3515C36.271 60.2746 35.8867 60.0772 35.5829 59.7842C35.2792 59.4912 35.0696 59.1157 34.9806 58.7048C34.8915 58.294 34.927 57.8662 35.0825 57.4753C35.238 57.0844 35.5066 56.7478 35.8545 56.5079C36.2025 56.2681 36.6141 56.1356 37.0377 56.1272C37.3217 56.1227 37.6037 56.1739 37.8676 56.2778C38.1315 56.3817 38.3722 56.5362 38.5758 56.7326C38.7793 56.9289 38.9417 57.1632 39.0538 57.422C39.1658 57.6808 39.2252 57.959 39.2285 58.2406Z" fill="#8F8FFF"/>
<path d="M39.2286 65.9727C39.1704 66.5027 38.9139 66.9917 38.5098 67.3433C38.1058 67.6949 37.5834 67.8835 37.046 67.8717C36.5086 67.86 35.9952 67.6489 35.6071 67.28C35.219 66.9111 34.9845 66.4113 34.9498 65.8793C34.9306 65.5847 34.9733 65.2892 35.0754 65.0118C35.1774 64.7344 35.3365 64.4811 35.5425 64.2679C35.7485 64.0547 35.9969 63.8863 36.272 63.7734C36.5471 63.6605 36.8429 63.6056 37.1405 63.6121C37.4382 63.6186 37.7312 63.6864 38.0011 63.8112C38.2709 63.936 38.5116 64.115 38.708 64.337C38.9043 64.559 39.052 64.819 39.1416 65.1006C39.2313 65.3822 39.2609 65.6791 39.2286 65.9727Z" fill="#8F8FFF"/>
<path d="M45.5186 60.3541C44.9466 60.3519 44.3985 60.1261 43.9931 59.7257C43.5878 59.3253 43.358 58.7826 43.3535 58.2153C43.3552 57.795 43.4822 57.3847 43.7185 57.0358C43.9548 56.687 44.2899 56.4153 44.6815 56.2548C45.0731 56.0944 45.5039 56.0525 45.9195 56.1342C46.3351 56.216 46.7171 56.4179 47.0173 56.7145C47.3175 57.0111 47.5226 57.3891 47.6067 57.801C47.6908 58.2129 47.6502 58.6402 47.49 59.0293C47.3298 59.4183 47.0572 59.7517 46.7064 59.9874C46.3556 60.2232 45.9423 60.3508 45.5186 60.3541Z" fill="#8F8FFF"/>
<path d="M47.6065 65.9048C47.6082 66.3254 47.4842 66.7371 47.2504 67.088C47.0165 67.4389 46.6831 67.7132 46.2923 67.8765C45.9014 68.0397 45.4706 68.0846 45.0541 68.0054C44.6376 67.9262 44.254 67.7265 43.9518 67.4315C43.6495 67.1364 43.4421 66.7592 43.3557 66.3475C43.2692 65.9357 43.3076 65.5077 43.466 65.1175C43.6244 64.7274 43.8957 64.3924 44.2457 64.1549C44.5957 63.9174 45.0088 63.788 45.4328 63.783C45.7167 63.7785 45.9985 63.83 46.2621 63.9347C46.5256 64.0393 46.7655 64.1948 46.9678 64.3923C47.1701 64.5898 47.3308 64.8253 47.4404 65.0849C47.5501 65.3446 47.6065 65.6233 47.6065 65.9048Z" fill="#8F8FFF"/>
</g>
<path d="M178.642 26.7947C179.675 28.0451 180.53 29.0268 181.209 29.7398C181.836 30.4256 182.539 31.0378 183.306 31.5646C183.925 32.0247 184.672 32.2854 185.445 32.3115C185.887 32.3408 186.325 32.2112 186.678 31.9465C186.832 31.8123 186.953 31.6442 187.03 31.4556C187.107 31.267 187.139 31.0631 187.123 30.8601C187.132 30.6406 187.087 30.422 186.992 30.2237C186.896 30.0253 186.753 29.8534 186.575 29.7228C186.116 29.4266 185.573 29.2838 185.026 29.3154V26.1581C185.982 26.1511 186.922 26.3909 187.756 26.8541C188.459 27.2593 189.023 27.8657 189.373 28.594C189.73 29.3448 189.908 30.1663 189.895 30.9959C189.936 31.6106 189.853 32.2271 189.652 32.8098C189.451 33.3926 189.135 33.9299 188.723 34.3909C188.318 34.779 187.837 35.0815 187.311 35.2799C186.784 35.4783 186.222 35.5686 185.659 35.5452C184.259 35.5387 182.906 35.0463 181.834 34.1532C180.555 33.1061 179.406 31.9123 178.411 30.597V35.7573H175.732V26.1666H178.18L178.642 26.7947Z" stroke="#8F8FFF" stroke-width="0.91" stroke-miterlimit="10"/>
<path d="M187.953 38.9146C188.551 39.4206 189.031 40.0491 189.36 40.7568C189.689 41.4645 189.859 42.2346 189.859 43.014C189.859 43.7934 189.689 44.5635 189.36 45.2712C189.031 45.9789 188.551 46.6075 187.953 47.1134C186.376 48.0346 184.56 48.4745 182.733 48.378C180.891 48.4769 179.061 48.0371 177.47 47.1134C176.873 46.6067 176.394 45.9779 176.066 45.2703C175.738 44.5626 175.568 43.7929 175.568 43.014C175.568 42.2351 175.738 41.4654 176.066 40.7578C176.394 40.0501 176.873 39.4214 177.47 38.9146C179.059 37.9846 180.89 37.5417 182.733 37.6415C184.561 37.543 186.379 37.9862 187.953 38.9146ZM185.728 44.7539C186.047 44.5864 186.313 44.3359 186.499 44.0294C186.685 43.7228 186.784 43.3718 186.784 43.014C186.784 42.6562 186.685 42.3052 186.499 41.9987C186.313 41.6921 186.047 41.4416 185.728 41.2741C184.764 40.9517 183.749 40.8078 182.733 40.8497C182.008 40.8387 181.283 40.8898 180.568 41.0025C180.055 41.078 179.574 41.2957 179.181 41.6306C178.839 42.0115 178.65 42.5038 178.65 43.014C178.65 43.5242 178.839 44.0166 179.181 44.3975C179.575 44.7296 180.056 44.9444 180.568 45.017C181.283 45.1297 182.008 45.1808 182.733 45.1698C183.751 45.2149 184.769 45.0739 185.736 44.7539H185.728Z" stroke="#8F8FFF" stroke-width="0.91" stroke-miterlimit="10"/>
<path d="M178.642 51.0178C179.675 52.2683 180.53 53.2528 181.209 53.9714C181.84 54.6527 182.543 55.2645 183.306 55.7962C183.928 56.2505 184.674 56.5079 185.445 56.5346C185.886 56.5619 186.321 56.4358 186.678 56.1782C186.827 56.029 186.943 55.8508 187.019 55.6549C187.095 55.4589 187.129 55.2495 187.12 55.0398C187.11 54.83 187.057 54.6245 186.963 54.4363C186.869 54.248 186.737 54.0811 186.575 53.946C186.116 53.6498 185.573 53.507 185.026 53.5386V50.3898C185.982 50.3788 186.924 50.6189 187.756 51.0857C188.462 51.4884 189.026 52.0956 189.373 52.8257C189.73 53.5734 189.908 54.3922 189.895 55.2191C189.937 55.8338 189.855 56.4506 189.653 57.0335C189.452 57.6163 189.136 58.1536 188.723 58.6141C188.318 59.0022 187.837 59.3047 187.311 59.5031C186.784 59.7015 186.222 59.7918 185.659 59.7683C184.259 59.7619 182.906 59.2694 181.834 58.3764C180.555 57.3293 179.406 56.1355 178.411 54.8202V59.9805H175.732V50.3898H178.18L178.642 51.0178Z" stroke="#8F8FFF" stroke-width="0.91" stroke-miterlimit="10"/>
<path d="M178.017 61.9326H180.678L189.39 67.9926V71.6422H180.875V73.2039H178.017V71.6422H175.518V68.3745H178.017V61.9326ZM185.762 68.5782L180.875 65.37V68.5782H185.762Z" stroke="#8F8FFF" stroke-width="0.91" stroke-miterlimit="10"/>
<path d="M115.092 26.5825V50.0671H110.343V34.7898L104.002 50.0671H100.407L94.0234 34.7898V50.0671H89.2739V26.5825H94.6738L102.205 44.0411L109.735 26.5825H115.092Z" fill="white"/>
<path d="M135.041 45.5943H125.627L124.07 50.0672H119.063L127.578 26.5486H133.107L141.622 50.0672H136.607L135.041 45.5943ZM133.757 41.8259L130.334 31.9975L126.911 41.8259H133.757Z" fill="white"/>
<path d="M164.394 26.5825L156.384 41.8598V50.0417H151.634V41.8598L143.59 26.5825H148.956L154.047 37.3106L159.096 26.5825H164.394Z" fill="white"/>
<path d="M90.9424 58.3169C92.0464 56.7553 93.7921 55.9829 96.1712 55.9829C98.5502 55.9829 100.296 56.7553 101.408 58.3169C102.638 60.2147 103.236 62.4468 103.12 64.6995C103.248 66.965 102.668 69.2145 101.46 71.1414C100.347 72.6918 98.5959 73.4698 96.2054 73.4754C93.815 73.4811 92.0663 72.7031 90.9596 71.1414C89.7544 69.2135 89.1777 66.9641 89.3079 64.6995C89.1733 62.4554 89.7444 60.2253 90.9424 58.3169ZM98.0196 61.4573C97.8434 61.1209 97.5774 60.839 97.2507 60.6423C96.924 60.4455 96.5491 60.3415 96.1669 60.3415C95.7847 60.3415 95.4098 60.4455 95.0831 60.6423C94.7564 60.839 94.4904 61.1209 94.3142 61.4573C93.9679 62.5022 93.8142 63.6005 93.8606 64.6995C93.8092 65.8147 93.9599 66.9301 94.3056 67.9926C94.4838 68.3305 94.7518 68.6136 95.0807 68.8111C95.4096 69.0086 95.7867 69.1131 96.1712 69.1131C96.5557 69.1131 96.9328 69.0086 97.2617 68.8111C97.5906 68.6136 97.8586 68.3305 98.0368 67.9926C98.3742 66.9284 98.5219 65.814 98.4732 64.6995C98.5196 63.6005 98.3659 62.5022 98.0196 61.4573Z" fill="#8F8FFF"/>
<path d="M109.05 66.7789C109.971 65.9804 110.801 65.0839 111.524 64.1054C112.128 63.3544 112.478 62.4338 112.525 61.4743C112.549 61.0526 112.425 60.6357 112.174 60.2945C112.038 60.149 111.87 60.0358 111.684 59.9632C111.497 59.8906 111.297 59.8605 111.097 59.8752C110.897 59.8899 110.704 59.9489 110.53 60.0479C110.356 60.147 110.208 60.2835 110.094 60.4473C109.813 60.967 109.691 61.5571 109.744 62.1448H105.225C105.227 60.9254 105.545 59.7269 106.149 58.665C106.678 57.787 107.455 57.0818 108.383 56.6365C109.345 56.1963 110.395 55.9759 111.455 55.9914C112.24 55.9278 113.029 56.0221 113.776 56.2686C114.523 56.515 115.213 56.9087 115.802 57.4258C116.281 57.9196 116.654 58.5041 116.9 59.1443C117.145 59.7846 117.258 60.4673 117.232 61.1518C117.216 62.8253 116.634 64.4451 115.58 65.7519C114.414 67.2355 113.023 68.5299 111.455 69.5883H117.394V73.3397H105.276V69.8768C106.811 68.6773 108.069 67.6446 109.05 66.7789Z" fill="#8F8FFF"/>
<path d="M130.163 63.4773V67.3221H119.397V63.4773H130.163Z" fill="#8F8FFF"/>
<path d="M135.391 58.3169C136.504 56.7553 138.241 55.9829 140.62 55.9829C142.999 55.9829 144.745 56.7553 145.866 58.3169C147.076 60.2214 147.659 62.4518 147.534 64.6995C147.662 66.965 147.082 69.2145 145.874 71.1414C144.762 72.6946 143.016 73.4754 140.62 73.4754C138.224 73.4754 136.478 72.6946 135.374 71.1414C134.174 69.2116 133.597 66.9636 133.722 64.6995C133.598 62.4518 134.181 60.2214 135.391 58.3169ZM142.477 61.4573C142.299 61.1212 142.032 60.8398 141.705 60.6434C141.378 60.447 141.002 60.3432 140.62 60.3432C140.237 60.3432 139.862 60.447 139.535 60.6434C139.207 60.8398 138.94 61.1212 138.763 61.4573C138.42 62.5029 138.269 63.601 138.318 64.6995C138.269 65.814 138.417 66.9284 138.754 67.9926C138.932 68.3305 139.201 68.6136 139.529 68.8111C139.858 69.0086 140.235 69.1131 140.62 69.1131C141.004 69.1131 141.382 69.0086 141.71 68.8111C142.039 68.6136 142.307 68.3305 142.485 67.9926C142.823 66.9284 142.971 65.814 142.922 64.6995C142.97 63.601 142.82 62.5029 142.477 61.4573Z" fill="#8F8FFF"/>
<path d="M150.153 70.7425V66.9232L157.453 56.594H162.588V66.7279H164.419V70.7425H162.588V73.5688H157.881V70.7425H150.153ZM158.206 61.8053L154.929 66.7279H158.206V61.8053Z" fill="#8F8FFF"/>
<g opacity="0.65">
<path d="M259.632 26.2261C262.188 26.2449 264.708 26.8356 267.002 27.9542C269.297 29.0727 271.308 30.6904 272.884 32.6865C274.461 34.6827 275.564 37.006 276.109 39.4833C276.655 41.9607 276.63 44.5282 276.037 46.9947C275.044 51.072 273.326 54.9407 270.962 58.4188C267.693 63.3924 264.236 68.2557 260.838 73.1529C260.732 73.3748 260.567 73.5638 260.361 73.6995C260.154 73.8352 259.914 73.9125 259.667 73.9229C259.419 73.9334 259.174 73.8767 258.957 73.759C258.739 73.6412 258.558 73.4669 258.434 73.2547C254.352 67.3136 249.816 61.6949 246.453 55.3124C244.627 52.0634 243.404 48.5161 242.841 44.8389C241.703 36.1563 248.472 27.4737 257.227 26.4552C258.023 26.4043 258.827 26.3025 259.632 26.2261ZM259.58 69.9786C259.786 69.7325 259.906 69.5967 260.008 69.4524C262.062 66.5667 264.142 63.6979 266.144 60.7783C268.615 57.3522 270.669 53.6487 272.263 49.7446C273.419 47.0214 273.855 44.0502 273.529 41.113C273.049 37.611 271.245 34.4209 268.482 32.1885C265.72 29.956 262.205 28.8478 258.65 29.0884C255.094 29.3289 251.764 30.9001 249.333 33.484C246.901 36.0679 245.551 39.4714 245.554 43.0057C245.649 45.9858 246.394 48.9102 247.736 51.5779C250.774 58.2236 255.344 63.9101 259.58 69.9786Z" fill="#8F8FFF"/>
<path d="M259.529 51.3913C257.858 51.3693 256.23 50.8559 254.853 49.9161C253.476 48.9763 252.411 47.6524 251.793 46.1121C251.175 44.5717 251.032 42.8841 251.382 41.2629C251.731 39.6418 252.558 38.1599 253.757 37.005C254.956 35.8501 256.474 35.0741 258.118 34.7752C259.763 34.4763 261.459 34.668 262.994 35.326C264.528 35.9839 265.831 37.0786 266.737 38.4714C267.644 39.8642 268.114 41.4924 268.087 43.1501C268.048 45.3667 267.127 47.4781 265.523 49.0225C263.919 50.5669 261.764 51.4186 259.529 51.3913ZM265.237 43.0567C265.245 41.9528 264.923 40.8712 264.311 39.949C263.7 39.0268 262.825 38.3055 261.8 37.8765C260.774 37.4474 259.643 37.3299 258.55 37.5389C257.457 37.7479 256.452 38.2739 255.66 39.0503C254.869 39.8267 254.328 40.8186 254.106 41.9003C253.883 42.982 253.99 44.1048 254.411 45.1265C254.833 46.1482 255.551 47.0228 256.474 47.6394C257.397 48.2561 258.484 48.5871 259.597 48.5905C261.082 48.5884 262.506 48.0065 263.562 46.9709C264.617 45.9353 265.219 44.5291 265.237 43.0567Z" fill="#8F8FFF"/>
</g>
<path d="M308.702 43.5403H305.193L297.251 31.658V43.5403H293.743V26.1836H297.251L305.193 38.0659V26.1836H308.693L308.702 43.5403Z" fill="white"/>
<path d="M316.318 42.5728C314.965 41.8284 313.842 40.7344 313.066 39.407C312.276 38.0112 311.861 36.4373 311.861 34.8366C311.861 33.2358 312.276 31.6619 313.066 30.2661C313.842 28.9387 314.965 27.8447 316.318 27.1003C317.702 26.35 319.255 25.9568 320.832 25.9568C322.41 25.9568 323.962 26.35 325.346 27.1003C326.691 27.846 327.806 28.9403 328.573 30.2661C329.352 31.6653 329.762 33.2378 329.762 34.8366C329.762 36.4353 329.352 38.0079 328.573 39.407C327.802 40.7356 326.681 41.8303 325.329 42.5728C323.948 43.3247 322.399 43.7188 320.824 43.7188C319.248 43.7188 317.699 43.3247 316.318 42.5728ZM323.601 39.8993C324.412 39.4208 325.066 38.7191 325.483 37.8793C325.952 36.9291 326.184 35.8813 326.159 34.8238C326.186 33.7716 325.954 32.7289 325.483 31.7853C325.065 30.9504 324.411 30.2543 323.601 29.7823C322.757 29.3058 321.798 29.0653 320.828 29.0864C319.847 29.0713 318.881 29.3175 318.029 29.7993C317.216 30.2708 316.559 30.9668 316.138 31.8023C315.672 32.7472 315.44 33.789 315.462 34.8408C315.442 35.8979 315.674 36.9447 316.138 37.8963C316.561 38.7304 317.218 39.4259 318.029 39.8993C318.88 40.3842 319.847 40.6307 320.828 40.6122C321.801 40.6321 322.76 40.3854 323.601 39.8993Z" fill="white"/>
<path d="M344.815 26.209V29.0098H340.16V43.5402H336.651V29.0098H331.996V26.209H344.815Z" fill="white"/>
<path d="M356.933 43.5403L353.082 36.7504H351.404V43.5403H347.904V26.209H354.46C355.64 26.1775 356.812 26.4186 357.883 26.9135C358.769 27.3286 359.513 27.9926 360.022 28.8232C360.527 29.6261 360.802 30.5504 360.818 31.4967C360.84 32.657 360.456 33.7891 359.73 34.6993C359.004 35.6096 357.982 36.2416 356.839 36.4873L361.015 43.5148L356.933 43.5403ZM351.422 34.2042H354.357C354.74 34.234 355.126 34.1886 355.491 34.0707C355.857 33.9527 356.195 33.7645 356.488 33.5167C356.727 33.2645 356.912 32.9666 357.031 32.6412C357.15 32.3158 357.201 31.9696 357.181 31.624C357.202 31.2846 357.152 30.9446 357.032 30.6258C356.913 30.3071 356.727 30.0168 356.488 29.7737C355.89 29.2897 355.127 29.0526 354.357 29.1117H351.404L351.422 34.2042Z" fill="white"/>
<path d="M368.024 29.0099V33.3554H373.911V36.1138H368.024V40.7055H374.664V43.5403H364.523V26.1836H374.664V29.0099H368.024Z" fill="white"/>
<path d="M395.905 27.2531C397.259 27.9314 398.381 28.9914 399.131 30.3001C399.913 31.7008 400.306 33.2825 400.269 34.8833C400.308 36.4761 399.915 38.0501 399.131 39.441C398.376 40.7371 397.254 41.7848 395.905 42.454C394.4 43.1914 392.739 43.5582 391.061 43.5234H384.951V26.2091H391.061C392.736 26.1704 394.397 26.5283 395.905 27.2531ZM395.143 39.1354C395.666 38.5732 396.069 37.912 396.327 37.1915C396.586 36.471 396.696 35.7061 396.649 34.9427C396.695 34.1715 396.586 33.3989 396.327 32.6702C396.069 31.9415 395.666 31.2713 395.143 30.699C394.575 30.1645 393.902 29.7528 393.165 29.4899C392.429 29.2269 391.645 29.1184 390.864 29.1712H388.382V40.6207H390.864C391.642 40.6741 392.422 40.57 393.157 40.3146C393.893 40.0592 394.569 39.658 395.143 39.1354Z" fill="white"/>
<path d="M414.124 40.2387H407.167L406.011 43.5403H402.332L408.621 26.1836H412.703L419.01 43.5403H415.305L414.124 40.2387ZM413.174 37.4379L410.65 30.1896L408.082 37.4379H413.174Z" fill="white"/>
<path d="M440.944 26.209V43.5402H437.444V32.269L432.763 43.5402H430.135L425.429 32.269V43.5402H421.92V26.209H425.856L431.428 39.1353L436.99 26.2514L440.944 26.209Z" fill="white"/>
<path d="M448.457 29.0099V33.3554H454.345V36.1138H448.457V40.7055H455.098V43.5403H444.949V26.1836H455.098V29.0099H448.457Z" fill="white"/>
<path d="M294.068 60.0653C294.821 58.7484 295.922 57.6598 297.252 56.9164C298.632 56.153 300.19 55.7637 301.77 55.7876C303.595 55.7494 305.387 56.2679 306.905 57.2729C308.369 58.2666 309.454 59.7193 309.986 61.3978H305.955C305.596 60.6152 304.997 59.9648 304.243 59.539C303.476 59.1114 302.607 58.8946 301.727 58.911C300.771 58.8926 299.828 59.1395 299.006 59.6239C298.212 60.1013 297.57 60.7931 297.158 61.6185C296.718 62.5676 296.49 63.5997 296.49 64.6442C296.49 65.6887 296.718 66.7208 297.158 67.67C297.57 68.5002 298.211 69.1977 299.006 69.6815C299.832 70.1576 300.773 70.4012 301.727 70.3859C302.607 70.4023 303.476 70.1855 304.243 69.7579C304.993 69.3197 305.59 68.6654 305.955 67.8821H309.986C309.462 69.5647 308.379 71.0216 306.913 72.0155C305.478 72.9175 303.828 73.4251 302.13 73.4862C300.432 73.5473 298.749 73.1599 297.252 72.3635C295.922 71.6235 294.822 70.5377 294.068 69.2232C293.304 67.8159 292.904 66.2425 292.904 64.6442C292.904 63.0459 293.304 61.4726 294.068 60.0653Z" fill="white"/>
<path d="M317.174 72.3721C315.821 71.6277 314.697 70.5337 313.922 69.2063C313.136 67.8089 312.724 66.2357 312.724 64.6358C312.724 63.036 313.136 61.4628 313.922 60.0654C314.702 58.7419 315.825 57.649 317.174 56.8996C318.559 56.153 320.111 55.762 321.688 55.762C323.265 55.762 324.816 56.153 326.202 56.8996C327.546 57.6498 328.663 58.7428 329.437 60.0654C330.217 61.4645 330.626 63.0371 330.626 64.6358C330.626 66.2346 330.217 67.8072 329.437 69.2063C328.667 70.5349 327.545 71.6296 326.194 72.3721C324.81 73.1209 323.259 73.5133 321.684 73.5133C320.108 73.5133 318.557 73.1209 317.174 72.3721ZM324.465 69.7071C325.276 69.2274 325.928 68.5221 326.339 67.6786C326.808 66.7287 327.04 65.6807 327.015 64.6231C327.04 63.571 326.808 62.5285 326.339 61.5846C325.925 60.75 325.273 60.0537 324.465 59.5816C323.609 59.1247 322.652 58.8856 321.679 58.8856C320.707 58.8856 319.75 59.1247 318.894 59.5816C318.081 60.0531 317.424 60.7491 317.003 61.5846C316.534 62.5201 316.299 63.5534 316.318 64.5977C316.293 65.6552 316.524 66.7033 316.994 67.6531C317.41 68.5006 318.068 69.2087 318.885 69.6901C319.74 70.1521 320.697 70.3943 321.671 70.3943C322.644 70.3943 323.602 70.1521 324.456 69.6901L324.465 69.7071Z" fill="white"/>
<path d="M337.25 70.5896H343.009V73.3396H333.75V56.0083H337.25V70.5896Z" fill="white"/>
<path d="M349.299 70.5896H355.059V73.3396H345.791V56.0083H349.299V70.5896Z" fill="white"/>
<path d="M361.34 58.8177V63.1632H367.228V65.9216H361.34V70.5388H367.981V73.3651H357.832V55.9829H367.981V58.8177H361.34Z" fill="white"/>
<path d="M383.924 61.2026C383.551 60.4894 382.977 59.8994 382.272 59.5051C381.514 59.116 380.669 58.9206 379.816 58.9365C378.851 58.9176 377.899 59.1581 377.06 59.6324C376.254 60.1025 375.601 60.7917 375.178 61.6185C374.716 62.5439 374.484 63.5653 374.502 64.5976C374.476 65.649 374.714 66.6902 375.195 67.6276C375.602 68.4853 376.257 69.2034 377.077 69.69C377.948 70.1689 378.932 70.4091 379.927 70.386C381.114 70.4358 382.28 70.0625 383.213 69.3335C384.107 68.5752 384.711 67.5356 384.925 66.3884H378.934V63.7488H388.408V66.7788C388.168 67.9951 387.653 69.1415 386.902 70.1314C386.118 71.1718 385.102 72.0173 383.932 72.6012C382.673 73.2337 381.278 73.5541 379.867 73.5348C378.271 73.5585 376.696 73.1695 375.297 72.406C373.957 71.6718 372.846 70.5852 372.088 69.2656C371.324 67.8583 370.924 66.285 370.924 64.6867C370.924 63.0884 371.324 61.515 372.088 60.1077C372.846 58.7859 373.957 57.6965 375.297 56.9589C376.798 56.1702 378.479 55.7829 380.176 55.835C381.874 55.8871 383.528 56.3768 384.976 57.256C386.418 58.2029 387.481 59.62 387.98 61.262L383.924 61.2026Z" fill="white"/>
<path d="M394.997 58.8177V63.1632H400.885V65.9216H394.997V70.5388H401.63V73.3651H391.489V55.9829H401.63V58.8177H394.997Z" fill="white"/>
<path d="M409.195 69.6899L406.268 76.6751H404.009L405.643 69.6899H409.195Z" fill="white"/>
<path d="M429.741 57.0778C431.097 57.7508 432.22 58.8085 432.968 60.1163C433.753 61.5162 434.148 63.0979 434.114 64.6994C434.15 66.2931 433.754 67.8672 432.968 69.2572C432.214 70.5565 431.092 71.6072 429.741 72.2787C428.236 73.0134 426.575 73.3774 424.898 73.3396H418.788V56.0084H424.898C426.576 55.9736 428.237 56.3404 429.741 57.0778ZM429.031 68.9007C429.554 68.3368 429.956 67.6739 430.213 66.9519C430.47 66.2299 430.578 65.4637 430.529 64.6994C430.576 63.9289 430.467 63.1568 430.21 62.4282C429.953 61.6996 429.552 61.0291 429.031 60.4558C428.462 59.9226 427.789 59.5117 427.053 59.2488C426.316 58.986 425.533 58.8767 424.752 58.928H422.271V70.3775H424.752C425.529 70.431 426.309 70.3278 427.044 70.0739C427.78 69.8201 428.456 69.421 429.031 68.9007Z" fill="#8F8FFF"/>
<path d="M451.786 56.0083V73.3396H448.286V65.964H440.798V73.3396H437.29V56.0083H440.798V63.1377H448.286V56.0083H451.786Z" fill="#8F8FFF"/>
<path d="M466.514 70.038H459.548L458.376 73.3396H454.696L460.977 55.9829H465.059L471.349 73.3396H467.644L466.514 70.038ZM465.564 67.2627L462.997 60.0059L460.429 67.2627H465.564Z" fill="#8F8FFF"/>
<path d="M484.143 73.3396L477.785 65.616V73.3396H474.276V56.0083H477.785V63.7488L484.143 55.9744H488.37L481.165 64.5976L488.576 73.3396H484.143Z" fill="#8F8FFF"/>
<path d="M502.148 70.038H495.174L494.027 73.3396H490.347L496.629 55.9829H500.711L507 73.3396H503.286L502.148 70.038ZM501.164 67.2627L498.597 60.0059L496.029 67.2627H501.164Z" fill="#8F8FFF"/>
</g>
<defs>
<linearGradient id="paint0_linear_235_129" x1="0" y1="50.5" x2="534" y2="50.5" gradientUnits="userSpaceOnUse">
<stop stop-color="#A3A4EF"/>
</linearGradient>
<clipPath id="clip0_235_129">
<rect width="534" height="101" fill="white"/>
</clipPath>
</defs>
</svg>
