<svg width="85" height="89" viewBox="0 0 85 89" fill="none" xmlns="http://www.w3.org/2000/svg">
<path d="M7.13058 51.7022L2.71011 54.2498C1.69485 54.8333 0.954032 55.7943 0.65062 56.9214C0.347209 58.0486 0.506057 59.2496 1.09222 60.2602L7.66988 71.6034C8.25609 72.6139 9.22159 73.3513 10.354 73.6533C11.4864 73.9553 12.6929 73.7972 13.7082 73.2138L18.1817 70.653C19.5165 69.8864 21.0303 69.4829 22.5713 69.4829C24.1122 69.4829 25.6261 69.8864 26.9608 70.653L27.0492 70.7014C28.3913 71.467 29.5067 72.5714 30.2828 73.9033C31.059 75.2352 31.4684 76.7473 31.4697 78.287V83.633C31.4697 84.7999 31.9354 85.9191 32.7644 86.7442C33.5934 87.5694 34.7178 88.033 35.8901 88.033H49.1515C50.3239 88.033 51.4483 87.5694 52.2773 86.7442C53.1063 85.9191 53.572 84.7999 53.572 83.633V78.2738C53.5716 76.7381 53.978 75.2295 54.7502 73.9C55.5224 72.5706 56.6332 71.4673 57.9704 70.7014L58.0632 70.6486C59.3979 69.882 60.9118 69.4785 62.4527 69.4785C63.9937 69.4785 65.5075 69.882 66.8423 70.6486L71.2981 73.2094C72.3134 73.7928 73.5199 73.9509 74.6523 73.6489C75.7847 73.3469 76.7502 72.6095 77.3365 71.599L83.9141 60.2558C84.2029 59.7545 84.3897 59.2015 84.4638 58.6284C84.5379 58.0553 84.4979 57.4733 84.346 56.9156C84.1942 56.3579 83.9334 55.8354 83.5787 55.378C83.2239 54.9206 82.7821 54.5372 82.2785 54.2498L77.8581 51.7022C76.5116 50.9315 75.3937 49.8204 74.6174 48.4814C73.8412 47.1423 73.4342 45.6229 73.4376 44.077V43.9846C73.4336 42.4391 73.8404 40.92 74.6168 39.5816C75.3931 38.2432 76.5114 37.133 77.8581 36.3638L82.2785 33.8162C83.2938 33.2327 84.0346 32.2716 84.338 31.1445C84.6414 30.0173 84.4826 28.8163 83.8964 27.8058L77.3099 16.4626C76.7237 15.452 75.7582 14.7146 74.6258 14.4126C73.4934 14.1106 72.2869 14.2687 71.2716 14.8522L66.8069 17.413C65.4722 18.1795 63.9583 18.583 62.4174 18.583C60.8764 18.583 59.3626 18.1795 58.0278 17.413L57.966 17.369C56.6239 16.6034 55.5085 15.4989 54.7323 14.167C53.9562 12.8352 53.5468 11.3231 53.5455 9.78336V4.43296C53.5455 3.26601 53.0798 2.14685 52.2508 1.32169C51.4218 0.496529 50.2974 0.032959 49.125 0.032959H35.8636C34.6912 0.032959 33.5669 0.496529 32.7379 1.32169C31.9089 2.14685 31.4432 3.26601 31.4432 4.43296V10.1266C31.4412 11.5599 31.0603 12.9675 30.3387 14.2079C29.617 15.4483 28.5801 16.4778 27.3321 17.193L26.6558 17.5802C25.4103 18.2949 23.9979 18.6711 22.5602 18.6711C21.1226 18.6711 19.7102 18.2949 18.4647 17.5802L13.7171 14.8522C12.7018 14.2687 11.4952 14.1106 10.3628 14.4126C9.23043 14.7146 8.26493 15.452 7.67872 16.4626L1.10106 27.8058C0.514161 28.8153 0.353966 30.0154 0.655686 31.1425C0.957405 32.2695 1.69635 33.2312 2.71011 33.8162L7.13058 36.3638C8.47701 37.1344 9.59495 38.2455 10.3712 39.5845C11.1475 40.9236 11.5545 42.443 11.551 43.989V44.0814C11.5551 45.6268 11.1482 47.1459 10.3719 48.4843C9.59553 49.8227 8.47727 50.9329 7.13058 51.7022ZM42.4943 30.833C45.1172 30.833 47.6811 31.6071 49.862 33.0576C52.0428 34.508 53.7425 36.5696 54.7463 38.9815C55.75 41.3935 56.0126 44.0476 55.5009 46.6082C54.9892 49.1687 53.7262 51.5207 51.8716 53.3668C50.0169 55.2128 47.654 56.47 45.0815 56.9793C42.509 57.4887 39.8426 57.2272 37.4194 56.2282C34.9962 55.2291 32.9251 53.5372 31.4679 51.3665C30.0107 49.1958 29.2329 46.6437 29.2329 44.033C29.2329 40.5321 30.6301 37.1746 33.1171 34.6992C35.6041 32.2237 38.9772 30.833 42.4943 30.833Z" fill="url(#paint0_diamond_2314_152)"/>
<defs>
<radialGradient id="paint0_diamond_2314_152" cx="0" cy="0" r="1" gradientUnits="userSpaceOnUse" gradientTransform="translate(43.8666 49.2619) rotate(39.0001) scale(52.2855 57.2934)">
<stop offset="0.119" stop-color="#C3C3FD"/>
<stop offset="0.844" stop-color="#7877C6"/>
</radialGradient>
</defs>
</svg>
